<?xml version="1.0" standalone="no"?>
<!DOCTYPE svg PUBLIC "-//W3C//DTD SVG 20010904//EN"
 "http://www.w3.org/TR/2001/REC-SVG-20010904/DTD/svg10.dtd">
<svg version="1.0" xmlns="http://www.w3.org/2000/svg"
 width="1276.000000pt" height="1280.000000pt" viewBox="0 0 1276.000000 1280.000000"
 preserveAspectRatio="xMidYMid meet">
<metadata>
Created by potrace 1.15, written by Peter Selinger 2001-2017
</metadata>
<g transform="translate(0.000000,1280.000000) scale(0.100000,-0.100000)"
fill="#94a3b8" stroke="none">
<path d="M6567 12785 c-269 -44 -472 -153 -702 -377 l-71 -68 -98 65 c-319
214 -609 274 -974 204 -135 -26 -263 -68 -389 -129 -280 -133 -458 -323 -609
-648 -35 -75 -47 -92 -61 -88 -66 19 -226 46 -327 56 -307 30 -573 -55 -861
-274 -247 -187 -409 -408 -479 -648 -28 -98 -56 -267 -57 -354 -2 -108 0 -106
-122 -125 -230 -37 -434 -116 -583 -227 -210 -156 -420 -451 -508 -712 -82
-247 -74 -507 24 -813 16 -50 26 -93 22 -95 -21 -7 -229 -136 -266 -164 -265
-206 -405 -441 -478 -810 -26 -135 -32 -412 -10 -513 46 -209 138 -390 301
-594 28 -35 51 -66 51 -70 0 -3 -17 -27 -39 -53 -167 -203 -262 -381 -308
-582 -26 -112 -23 -410 5 -546 96 -455 277 -700 705 -952 l45 -27 -24 -73
c-117 -343 -116 -627 3 -908 135 -318 363 -586 613 -718 131 -69 254 -108 448
-142 57 -10 105 -20 108 -23 2 -2 9 -55 14 -118 38 -433 175 -696 500 -956
177 -142 338 -227 516 -275 79 -20 111 -23 279 -23 159 0 208 4 300 23 61 13
118 25 127 28 13 4 30 -21 76 -118 77 -160 168 -295 262 -389 305 -305 883
-460 1285 -344 152 44 267 99 429 205 l78 51 88 -85 c264 -255 503 -360 845
-373 250 -9 489 35 684 128 188 89 326 209 480 417 46 61 87 112 90 112 4 0
42 -15 86 -34 212 -89 322 -116 500 -123 219 -8 380 27 611 136 288 137 492
325 615 570 41 82 107 274 129 372 l13 57 211 5 c186 4 223 7 311 30 396 104
791 486 924 895 64 195 77 433 38 680 -1 9 35 27 103 51 445 159 681 399 829
846 53 160 72 256 78 400 9 209 -37 393 -156 630 -38 74 -66 135 -62 135 17 0
255 238 306 306 111 146 182 310 222 510 27 136 24 434 -5 571 -60 279 -169
464 -403 686 l-121 115 60 119 c202 396 213 710 41 1148 -48 123 -114 238
-198 345 -132 167 -326 295 -599 395 -103 38 -104 38 -98 67 3 16 11 92 17
168 22 253 -13 450 -116 655 -156 312 -474 602 -767 699 -141 48 -204 57 -415
63 l-202 5 -12 57 c-16 81 -92 308 -124 371 -142 284 -399 496 -767 634 -345
129 -625 107 -1043 -80 -6 -2 -49 46 -95 108 -232 311 -463 458 -821 524 -121
22 -393 27 -502 9z m64 -481 c-12 -187 -21 -354 -21 -372 0 -25 -4 -32 -19
-32 -24 0 -182 55 -233 81 l-37 19 -1 295 -1 295 44 19 c51 22 196 59 247 63
26 2 36 -1 38 -13 2 -9 -6 -169 -17 -355z m348 366 c41 -6 76 -12 79 -15 3 -3
-17 -185 -44 -405 l-49 -400 -50 0 c-45 0 -186 17 -190 23 -1 1 8 173 21 382
13 209 23 390 24 403 0 21 4 22 68 22 37 0 100 -5 141 -10z m271 -61 c73 -24
185 -78 217 -105 l22 -19 -56 -285 c-31 -157 -60 -290 -65 -297 -10 -12 -155
-41 -233 -45 -48 -3 -50 -2 -47 22 17 170 92 750 96 750 2 0 31 -9 66 -21z
m-1046 -548 c-5 -5 -287 184 -303 203 -9 10 7 30 67 83 43 39 111 96 152 127
l75 56 7 -232 c3 -128 4 -235 2 -237z m-1065 449 c35 -5 66 -11 69 -15 3 -3
29 -137 58 -298 l51 -292 -23 -22 c-26 -24 -223 -138 -228 -132 -12 14 -189
760 -181 763 19 8 190 6 254 -4z m-285 -405 c53 -212 96 -389 96 -393 0 -5
-39 -20 -87 -34 -156 -46 -138 -52 -172 54 -16 51 -70 220 -120 376 -50 155
-91 289 -91 296 0 8 15 19 33 26 63 24 192 59 218 59 l27 1 96 -385z m673 267
c46 -26 105 -63 133 -83 l50 -36 -141 -137 c-77 -76 -142 -136 -144 -134 -3 3
-85 457 -85 472 0 11 104 -34 187 -82z m2277 -201 c32 -45 57 -84 54 -86 -8
-9 -305 -134 -334 -141 -21 -5 -26 -4 -22 7 3 8 25 115 49 238 l43 224 76 -80
c41 -44 101 -117 134 -162z m-3320 -177 c64 -201 114 -369 111 -372 -4 -4 -70
-7 -148 -7 l-142 0 -112 275 c-82 203 -109 278 -101 288 36 43 237 182 264
182 6 0 63 -165 128 -366z m4338 170 c40 -9 74 -17 76 -19 5 -5 -318 -700
-328 -703 -10 -4 -144 104 -193 156 l-29 30 95 253 c53 140 100 267 106 283
l12 29 93 -6 c52 -4 127 -14 168 -23z m-2913 -53 c393 -282 747 -398 1156
-378 249 12 557 100 822 236 l42 21 77 -113 c193 -281 383 -475 599 -607 147
-91 345 -169 515 -204 154 -31 252 -38 485 -35 l234 4 16 -75 c73 -334 158
-558 284 -743 69 -102 101 -140 199 -241 220 -224 446 -354 844 -485 89 -30
97 -35 93 -54 -15 -66 -37 -281 -42 -412 -20 -509 161 -961 520 -1302 42 -40
126 -113 187 -164 l110 -91 -27 -47 c-252 -430 -334 -711 -320 -1091 13 -337
84 -541 343 -991 2 -3 -55 -54 -126 -113 -316 -262 -494 -507 -601 -825 -104
-313 -122 -558 -64 -906 13 -82 23 -150 22 -151 -1 -1 -60 -21 -132 -44 -392
-130 -644 -285 -863 -532 -195 -220 -308 -450 -392 -794 -23 -93 -44 -177 -46
-187 -5 -16 -19 -17 -197 -11 -366 12 -616 -34 -897 -167 -292 -139 -524 -354
-755 -702 -32 -48 -62 -87 -68 -87 -5 0 -65 25 -134 55 -361 160 -669 219
-974 186 -337 -37 -573 -133 -913 -373 l-99 -70 -141 139 c-78 77 -163 158
-191 180 -247 197 -572 329 -900 364 -186 20 -414 -3 -695 -71 -68 -16 -127
-26 -131 -22 -3 4 -23 48 -44 97 -195 465 -469 782 -846 975 -178 92 -430 161
-689 191 -58 6 -109 15 -113 19 -5 4 -13 83 -18 175 -20 362 -86 617 -220 850
-172 301 -393 506 -762 710 -70 39 -127 75 -127 81 0 7 15 54 34 105 43 119
90 288 113 404 13 67 18 140 18 285 0 167 -4 212 -24 310 -68 330 -210 603
-474 913 l-67 78 80 95 c258 305 394 568 461 894 20 96 24 145 24 300 0 243
-26 384 -122 670 -53 157 -65 130 102 221 364 199 596 426 768 749 120 225
177 456 198 798 6 97 14 180 17 183 4 3 53 12 109 18 143 17 364 64 474 101
347 116 635 341 851 665 74 112 193 339 233 448 10 26 21 49 24 51 3 3 60 -9
126 -25 443 -106 720 -103 1075 12 130 42 318 136 422 211 101 73 252 205 358
312 41 42 76 76 79 76 2 0 47 -31 100 -69z m2511 52 c0 -9 -152 -417 -157
-423 -7 -8 -55 52 -143 180 -44 63 -76 117 -72 121 12 12 193 81 272 105 81
24 100 28 100 17z m727 -119 c63 -31 117 -62 119 -69 5 -12 -345 -675 -372
-704 -10 -11 -28 -5 -109 34 -53 26 -99 53 -101 60 -3 6 59 151 137 321 77
170 152 333 164 362 13 28 29 52 35 52 7 0 64 -25 127 -56z m-5062 -199 c46
-115 83 -210 81 -213 -8 -8 -350 68 -363 81 -7 7 105 225 149 290 22 32 42 57
44 55 2 -2 42 -98 89 -213z m5425 -55 c121 -123 127 -87 -57 -376 l-159 -249
-48 2 c-61 2 -236 43 -236 55 0 5 82 162 183 348 l182 338 30 -21 c17 -11 64
-55 105 -97z m-6040 -126 c47 -8 102 -19 123 -25 47 -12 49 -5 -49 -208 -68
-141 -76 -153 -88 -135 -22 31 -236 387 -236 392 0 7 155 -8 250 -24z m-228
-244 l157 -259 -58 -78 c-32 -43 -72 -94 -89 -113 -27 -31 -32 -33 -45 -20
-31 31 -437 614 -435 622 8 22 239 103 303 107 6 1 81 -116 167 -259z m6516
-62 c33 -104 56 -197 51 -203 -7 -6 -367 -10 -374 -4 -3 4 36 71 86 150 51 79
107 168 126 198 l34 54 24 -52 c13 -28 37 -93 53 -143z m-6860 -179 l232 -330
-27 -25 c-44 -39 -149 -114 -161 -114 -10 0 -512 612 -512 624 0 12 215 177
230 176 3 -1 110 -149 238 -331z m-314 -227 c130 -161 239 -299 242 -306 5
-12 -98 -62 -213 -102 l-53 -19 -24 25 c-13 14 -105 112 -205 219 l-181 194
41 75 c22 42 54 94 71 116 36 46 81 97 83 93 1 -1 109 -134 239 -295z m7724
82 c29 -4 51 -10 50 -15 -9 -24 -302 -339 -309 -332 -7 7 -89 323 -89 344 0 4
8 10 18 13 20 6 254 -1 330 -10z m253 -70 c77 -31 231 -125 227 -139 -2 -6
-127 -131 -278 -278 l-274 -267 -30 48 c-16 26 -47 84 -69 129 -34 72 -37 84
-25 101 13 19 380 432 383 432 1 0 30 -12 66 -26z m-8296 -295 c83 -89 151
-165 153 -169 4 -10 -62 -24 -208 -45 -63 -9 -126 -18 -138 -21 -24 -5 -24 -5
-17 73 14 165 40 323 53 323 4 0 75 -73 157 -161z m8720 -11 c48 -51 90 -99
95 -108 7 -13 -53 -69 -296 -276 -167 -142 -308 -260 -313 -262 -4 -1 -44 36
-87 84 l-79 87 290 283 c160 156 293 283 297 284 3 0 45 -41 93 -92z m210
-282 c40 -71 98 -222 93 -242 -2 -7 -110 -92 -241 -189 l-239 -176 -56 32
c-82 45 -184 119 -180 130 2 7 575 504 585 508 1 1 18 -28 38 -63z m-9269
-193 c-11 -195 -19 -274 -27 -271 -16 6 -369 282 -369 288 0 13 249 78 355 93
17 2 34 5 39 6 5 0 6 -48 2 -116z m-285 -224 c270 -210 251 -175 192 -351 -24
-75 -40 -108 -49 -104 -7 3 -155 100 -330 217 l-318 212 59 55 c59 54 192 152
205 152 4 0 112 -82 241 -181z m9679 -69 c0 -86 -17 -300 -25 -308 -4 -4 -250
80 -330 114 l-37 15 188 139 c104 77 192 140 196 140 5 0 8 -45 8 -100z
m-9597 -534 c-31 -61 -103 -166 -113 -166 -8 0 -681 381 -698 395 -6 5 29 67
90 162 l59 92 339 -226 339 -226 -16 -31z m-190 -266 c4 -4 -40 -52 -98 -108
l-106 -101 -62 28 c-34 16 -155 74 -269 129 l-208 101 0 45 c0 67 23 167 65
283 3 8 126 -57 337 -178 183 -106 337 -195 341 -199z m9939 304 c84 -30 288
-124 288 -133 -1 -10 -401 -213 -407 -207 -9 9 33 366 43 366 1 0 36 -12 76
-26z m483 -286 c77 -79 149 -178 137 -189 -15 -14 -703 -302 -708 -296 -11 10
-35 200 -32 246 l3 46 255 132 c140 73 259 132 265 132 5 1 41 -32 80 -71z
m-10770 -323 c-42 -32 -277 -165 -291 -165 -20 0 -103 298 -104 372 0 13 48
-7 211 -85 l211 -102 -27 -20z m10993 -12 c35 -70 85 -224 76 -232 -5 -5 -43
-20 -84 -34 -79 -26 -634 -221 -661 -232 -11 -4 -21 8 -37 47 -28 68 -63 170
-59 174 7 7 723 313 734 313 7 1 21 -16 31 -36z m-11316 -454 c55 -165 78
-249 67 -249 -7 0 -359 103 -453 133 -24 8 314 240 338 233 5 -1 27 -54 48
-117z m11435 74 c4 -16 8 -91 8 -168 l0 -139 -285 -78 c-157 -43 -289 -77
-295 -77 -13 0 -81 86 -135 169 l-41 64 33 12 c18 7 125 45 238 84 113 40 259
91 325 115 66 24 126 44 132 44 7 1 16 -11 20 -26z m-11507 -406 l175 -52 7
-50 c3 -27 7 -92 7 -142 1 -79 -1 -93 -15 -93 -13 0 -640 136 -721 157 -13 3
-23 11 -23 18 0 21 87 186 124 237 l35 46 118 -35 c65 -19 197 -58 293 -86z
m11464 -109 c-33 -96 -133 -298 -146 -298 -20 0 -304 248 -287 251 2 0 96 27
209 59 113 31 215 58 227 59 l23 1 -26 -72z m-11667 -269 c380 -83 383 -84
383 -109 0 -27 -37 -200 -44 -207 -2 -3 -51 2 -108 11 -506 76 -647 97 -669
102 -25 5 -25 6 -17 67 9 68 37 207 45 220 3 5 10 7 17 4 6 -2 183 -41 393
-88z m11650 -301 c79 -75 183 -187 183 -197 0 -8 -439 -55 -447 -47 -6 5 59
135 124 248 51 89 43 90 140 -4z m-11727 -76 c352 -54 375 -59 372 -77 -5 -26
-96 -215 -113 -236 -13 -15 -38 -14 -303 7 -209 16 -291 26 -297 36 -27 43
-64 329 -43 328 5 -1 178 -27 384 -58z m12027 -309 c17 -38 40 -99 51 -138 36
-125 43 -112 -67 -119 -53 -3 -199 -8 -326 -11 -126 -3 -259 -8 -294 -11 l-64
-6 7 51 c8 61 53 222 66 235 9 9 463 62 551 65 l46 1 30 -67z m-11851 -136 c5
-4 -196 -257 -219 -276 -15 -12 -19 -12 -30 1 -107 136 -207 283 -207 306 0 7
449 -23 456 -31z m11952 -386 l3 -144 -233 7 c-128 3 -313 9 -410 13 l-178 6
0 118 c0 66 1 120 3 120 6 4 644 26 722 25 l90 -1 3 -144z m-12030 -280 c45
-58 82 -109 82 -113 0 -5 -6 -8 -12 -8 -7 -1 -112 -9 -233 -19 -121 -10 -221
-17 -223 -16 -12 10 69 139 166 263 l64 83 37 -42 c20 -23 73 -90 119 -148z
m11686 28 c176 -6 322 -12 323 -13 2 -1 -6 -38 -18 -82 -25 -96 -77 -224 -93
-230 -11 -4 -597 53 -601 59 -8 9 -38 116 -54 190 l-19 87 70 0 c39 0 215 -5
392 -11z m-11469 -371 c74 -157 74 -155 28 -162 -241 -38 -700 -106 -715 -106
-16 0 -18 9 -18 68 0 57 31 247 43 258 3 3 507 49 585 53 20 1 31 -14 77 -111z
m11388 -49 c119 -12 217 -25 217 -28 0 -13 -119 -143 -180 -198 -120 -107
-102 -104 -147 -26 -58 98 -130 235 -137 260 -5 17 -3 21 11 18 10 -2 116 -14
236 -26z m-11268 -291 c9 -40 19 -94 22 -119 l6 -47 -89 -20 c-430 -98 -697
-153 -704 -146 -9 10 -46 185 -52 244 -2 29 1 36 17 38 70 12 762 120 772 121
6 0 19 -30 28 -71z m11223 -319 c51 -100 108 -246 100 -254 -4 -4 -379 93
-427 111 -11 3 -4 15 25 44 68 69 239 208 246 201 3 -3 29 -49 56 -102z
m-11191 -101 c-3 -73 -8 -140 -11 -149 -4 -10 -100 -43 -280 -97 -151 -45
-281 -82 -289 -82 -9 0 -37 33 -64 73 -49 74 -120 214 -112 220 2 2 135 32
294 67 160 34 324 71 365 80 41 10 81 19 89 19 11 1 13 -22 8 -131z m10931
-183 c423 -115 392 -105 398 -132 9 -35 -1 -285 -12 -304 -8 -14 -24 -10 -129
27 -66 23 -226 79 -355 124 -129 45 -239 86 -244 91 -14 13 143 239 166 239 6
0 85 -20 176 -45z m-10982 -150 c-9 -44 -96 -307 -106 -318 -13 -15 -278 157
-319 206 -11 14 -11 17 0 21 36 13 415 125 423 125 4 1 5 -15 2 -34z m10956
-285 c204 -71 373 -132 377 -135 6 -7 -36 -136 -73 -219 l-25 -56 -103 44
c-233 98 -633 269 -640 272 -13 8 68 224 84 224 5 0 177 -58 380 -130z m-141
-360 c193 -82 354 -152 357 -155 10 -9 -86 -139 -148 -200 l-61 -60 -275 140
-275 140 6 65 c10 108 31 220 40 220 3 0 163 -67 356 -150z m-10772 99 c111
-60 241 -141 241 -149 0 -4 -93 -52 -207 -107 -240 -116 -227 -118 -198 29 19
93 73 268 82 268 4 0 40 -19 82 -41z m482 -337 c52 -50 92 -92 89 -94 -8 -8
-671 -388 -676 -388 -16 0 -71 203 -76 280 l-3 45 55 27 c309 155 486 235 501
228 9 -5 58 -49 110 -98z m10112 -142 c114 -58 205 -109 204 -114 -7 -22 -360
-177 -372 -164 -5 5 -43 250 -50 322 -4 40 -3 67 2 65 5 -2 103 -51 216 -109z
m-9905 -107 c41 -60 86 -143 80 -148 -12 -10 -669 -445 -672 -445 -5 0 -119
176 -139 217 l-17 31 348 201 c191 110 350 201 354 201 4 0 25 -26 46 -57z
m153 -300 c11 -27 32 -90 46 -142 20 -78 22 -96 11 -106 -7 -7 -113 -90 -235
-184 l-222 -172 -73 49 c-40 28 -100 75 -133 105 -53 49 -58 57 -45 70 13 13
620 425 628 427 1 0 12 -21 23 -47z m9494 -50 c9 -24 20 -347 12 -367 -5 -13
-26 -1 -104 57 -54 40 -138 102 -186 137 l-88 65 43 19 c66 29 281 105 299
105 9 1 20 -7 24 -16z m-247 -341 c122 -90 224 -168 228 -173 13 -22 -105
-314 -127 -314 -4 0 -138 112 -299 249 l-293 250 39 33 c60 50 205 133 219
125 6 -4 111 -80 233 -170z m-9138 -175 c7 -98 10 -180 8 -182 -10 -11 -292
50 -360 78 l-33 13 64 50 c35 27 116 90 180 140 64 51 119 89 123 85 3 -3 12
-86 18 -184z m8875 -162 c154 -131 284 -242 289 -246 5 -5 -3 -24 -19 -45 -46
-61 -156 -174 -169 -174 -6 0 -141 127 -299 283 l-288 282 82 88 c82 88 82 88
103 69 11 -11 147 -126 301 -257z m-269 -279 l276 -270 -23 -19 c-36 -29 -148
-93 -211 -121 l-57 -25 -128 142 c-304 338 -278 303 -265 343 14 48 113 225
124 222 4 -2 132 -124 284 -272z m-8305 99 c63 -9 139 -22 167 -28 l53 -12
-162 -173 c-89 -95 -165 -170 -169 -165 -12 12 -38 156 -50 272 -14 139 -15
131 18 126 15 -3 79 -12 143 -20z m448 -109 c48 -19 107 -44 130 -56 39 -19
41 -23 28 -38 -8 -9 -119 -147 -247 -306 l-234 -289 -42 49 c-51 58 -137 198
-138 223 -1 16 390 448 407 450 4 1 47 -14 96 -33z m7545 -271 c80 -91 149
-171 152 -179 4 -11 -10 -16 -63 -22 -73 -9 -329 -11 -337 -3 -11 11 80 369
94 369 4 0 73 -74 154 -165z m-7189 73 c125 -97 116 -76 62 -155 -168 -243
-415 -587 -424 -590 -10 -4 -198 132 -220 159 -9 10 46 84 240 325 139 172
257 313 263 313 6 0 42 -24 79 -52z m247 -230 c61 -73 128 -165 128 -177 0
-10 -283 -486 -300 -504 -17 -19 -337 81 -328 102 8 19 444 631 449 631 4 0
27 -24 51 -52z m6535 -161 c16 -17 -99 -372 -121 -372 -9 0 -246 364 -246 379
0 10 356 3 367 -7z m-355 -239 c85 -134 158 -248 162 -255 9 -16 -93 -141
-166 -202 -49 -42 -64 -50 -73 -39 -11 12 -365 663 -365 672 0 8 224 61 277
65 6 1 81 -108 165 -241z m-362 -223 c106 -196 191 -358 189 -360 -8 -7 -225
-113 -244 -118 -18 -6 -38 33 -185 355 -91 199 -165 367 -165 372 0 11 180
106 201 106 7 0 99 -160 204 -355z m-5576 258 c57 -115 119 -263 113 -269 -9
-9 -170 -41 -242 -48 -33 -4 -79 -9 -102 -12 -26 -3 -43 -1 -43 5 0 5 45 85
101 178 120 200 128 213 134 213 3 0 20 -30 39 -67z m5231 -432 c86 -189 153
-347 148 -351 -11 -11 -151 -37 -240 -45 -67 -6 -73 -5 -86 17 -8 13 -59 142
-113 287 l-98 264 59 55 c87 81 157 134 165 125 4 -4 78 -163 165 -352z
m-4174 173 l36 -6 -12 -42 c-45 -146 -218 -683 -224 -694 -9 -16 -156 71 -229
136 l-53 47 107 265 c58 146 110 273 115 283 8 15 25 17 117 17 59 0 123 -3
143 -6z m-394 -26 c-135 -340 -172 -428 -177 -428 -19 0 -209 344 -197 357 11
10 315 80 361 82 11 1 16 -4 13 -11z m704 -41 c40 -13 73 -28 73 -33 -2 -11
-184 -754 -189 -771 -5 -14 -87 3 -208 43 -70 23 -77 28 -71 47 18 64 235 741
239 748 6 9 57 -2 156 -34z m3473 -265 c42 -112 76 -207 76 -212 0 -6 -12 -8
-27 -4 -50 11 -257 82 -311 106 l-53 24 76 108 c111 159 149 205 157 192 4 -7
41 -103 82 -214z m-3093 93 l66 -43 -44 -253 c-24 -140 -46 -273 -50 -296 -6
-42 -6 -42 -62 -54 -56 -12 -274 -19 -284 -9 -5 4 115 498 174 722 l10 38 62
-31 c34 -18 92 -51 128 -74z m1713 -32 c13 -83 96 -766 94 -768 -7 -7 -178
-25 -229 -25 -53 0 -59 2 -63 23 -8 38 -48 779 -42 784 8 8 106 20 173 22 l61
1 6 -37z m298 10 c48 -8 93 -20 101 -26 9 -8 36 -121 70 -296 65 -324 69 -285
-43 -345 -94 -49 -210 -89 -215 -73 -2 6 -22 165 -45 352 -23 187 -44 357 -47
378 l-6 39 49 -7 c27 -4 88 -13 136 -22z m-637 -410 c13 -213 22 -389 21 -390
-7 -7 -195 31 -254 51 l-67 23 -3 274 c-1 151 0 289 3 306 4 23 15 38 35 48
38 20 233 85 238 80 2 -2 14 -178 27 -392z m982 308 c101 -40 234 -99 242
-106 7 -8 -113 -166 -184 -243 l-72 -76 -43 219 c-23 121 -45 225 -47 232 -7
18 -5 18 104 -26z m-2042 -133 c69 -68 125 -128 125 -135 0 -21 -332 -215
-345 -201 -2 2 31 204 70 426 3 17 10 32 15 32 5 0 66 -55 135 -122z m639
-180 c-4 -128 -8 -235 -10 -237 -8 -9 -147 101 -227 179 l-88 85 153 102 c84
57 159 103 166 103 10 0 11 -49 6 -232z"/>
</g>
</svg>
